<?xml version="1.0" encoding="UTF-8"?>
<svg xmlns="http://www.w3.org/2000/svg" viewBox="0 0 1000 500" width="1000" height="500">
  <rect width="1000" height="500" fill="#0a1628"/>
  <g stroke="#1a2a4a" stroke-width="0.5">
    <line x1="0" y1="0" x2="0" y2="500"/>
    <line x1="83.333333333333" y1="0" x2="83.333333333333" y2="500"/>
    <line x1="166.66666666667" y1="0" x2="166.66666666667" y2="500"/>
    <line x1="250" y1="0" x2="250" y2="500"/>
    <line x1="333.33333333333" y1="0" x2="333.33333333333" y2="500"/>
    <line x1="416.66666666667" y1="0" x2="416.66666666667" y2="500"/>
    <line x1="500" y1="0" x2="500" y2="500"/>
    <line x1="583.33333333333" y1="0" x2="583.33333333333" y2="500"/>
    <line x1="666.66666666667" y1="0" x2="666.66666666667" y2="500"/>
    <line x1="750" y1="0" x2="750" y2="500"/>
    <line x1="833.33333333333" y1="0" x2="833.33333333333" y2="500"/>
    <line x1="916.66666666667" y1="0" x2="916.66666666667" y2="500"/>
    <line x1="1000" y1="0" x2="1000" y2="500"/>
    <line x1="0" y1="0" x2="1000" y2="0"/>
    <line x1="0" y1="83.333333333333" x2="1000" y2="83.333333333333"/>
    <line x1="0" y1="166.66666666667" x2="1000" y2="166.66666666667"/>
    <line x1="0" y1="250" x2="1000" y2="250"/>
    <line x1="0" y1="333.33333333333" x2="1000" y2="333.33333333333"/>
    <line x1="0" y1="416.66666666667" x2="1000" y2="416.66666666667"/>
    <line x1="0" y1="500" x2="1000" y2="500"/>
  </g>
  <polygon fill="#2a3a5a" stroke="#4a5a7a" stroke-width="1" points="120,80 280,60 320,120 300,200 250,250 200,220 150,180 100,140"/>
  <polygon fill="#2a3a5a" stroke="#4a5a7a" stroke-width="1" points="260,280 320,270 340,350 300,450 260,420 240,350"/>
  <polygon fill="#3a4a6a" stroke="#4a5a7a" stroke-width="1" points="460,100 520,90 560,120 540,160 480,150 450,130"/>
  <polygon fill="#3a4a6a" stroke="#4a5a7a" stroke-width="1" points="480,180 560,170 600,250 580,380 520,400 460,350 450,250"/>
  <polygon fill="#4a5a7a" stroke="#4a5a7a" stroke-width="1" points="560,80 750,60 880,100 900,200 850,280 750,300 650,250 580,180 560,120"/>
  <polygon fill="#4a5a7a" stroke="#4a5a7a" stroke-width="1" points="780,350 880,340 920,400 880,450 800,440 760,400"/>
  <polygon fill="#5a6a8a" stroke="#4a5a7a" stroke-width="1" points="100,480 500,470 900,480 900,500 100,500"/>
  <polygon fill="#6a7a9a" stroke="#4a5a7a" stroke-width="1" points="340,40 420,30 440,80 400,100 350,90"/>
  <polygon fill="#5a6a8a" stroke="#4a5a7a" stroke-width="1" points="430,110 450,105 455,125 440,130 425,120"/>
  <polygon fill="#5a6a8a" stroke="#4a5a7a" stroke-width="1" points="860,160 880,150 890,180 870,190 855,175"/>
  <polygon fill="#4a5a7a" stroke="#4a5a7a" stroke-width="1" points="750,320 820,310 850,340 800,360 740,340"/>
  <polygon fill="#5a6a8a" stroke="#4a5a7a" stroke-width="1" points="920,420 940,410 950,440 930,450"/>
  <g stroke="#5a6a8a" stroke-width="0.5" fill="none">
    <polyline points="120,140 200,130 280,125"/>
    <polyline points="150,220 220,215 280,210"/>
    <polyline points="460,130 500,125 540,130"/>
    <polyline points="650,180 700,175 750,180"/>
  </g>
</svg>